<svg width="324" height="316" viewBox="0 0 324 316" fill="currentColor" xmlns="http://www.w3.org/2000/svg">
<path fill="url(#b)" d="M5.16239 315.867C1.57808 315.867 -0.84201 312.206 0.561849 308.908L130.705 3.17503C131.49 1.33059 133.301 0.133339 135.306 0.133339L188.427 0.133339C190.432 0.133339 192.243 1.33057 193.028 3.175L323.171 308.908C324.575 312.206 322.155 315.867 318.571 315.867H262.327C260.278 315.867 258.437 314.617 257.68 312.713L233.205 251.11C231.608 247.089 226.005 246.857 224.081 250.732L193.112 313.091C192.267 314.791 190.532 315.867 188.634 315.867H135.099C133.201 315.867 131.466 314.791 130.621 313.091L99.6525 250.732C97.7283 246.857 92.125 247.089 90.5276 251.11L66.0529 312.713C65.2964 314.617 63.455 315.867 61.4062 315.867H5.16239ZM166.118 78.9194C164.536 74.7792 158.749 74.5913 156.902 78.6201L118.061 163.348C117.432 164.72 117.457 166.303 118.128 167.655L156.974 245.876C158.884 249.721 164.431 249.53 166.072 245.564L198.439 167.356C198.928 166.175 198.946 164.853 198.49 163.659L166.118 78.9194Z" />
  <linearGradient
    id="b"
    x1="20"
    x2="20"
    y1="0"
    y2="316.1"
    gradientUnits="userSpaceOnUse"
  >
    <stop />
    <stop offset="1" stop-color="#3D3D3D" />
  </linearGradient>
</svg>
