<svg viewBox="0 0 512 512" fill="none" xmlns="http://www.w3.org/2000/svg">
  <style>
    path { fill: black; }
    @media (prefers-color-scheme: dark) {
    path { fill: white; }
    }
  </style>
  <path  d="M47.5577 462C43.9746 462 41.5546 458.342 42.956 455.044L213.797 53.0444C214.582 51.1985 216.393 50 218.399 50H289.601C291.607 50 293.418 51.1985 294.203 53.0444L465.044 455.044C466.445 458.342 464.025 462 460.442 462H383.85C381.801 462 379.958 460.749 379.203 458.844L345.685 374.342C344.089 370.318 338.481 370.086 336.558 373.964L294.287 459.221C293.443 460.923 291.707 462 289.807 462H218.193C216.293 462 214.557 460.923 213.713 459.221L171.442 373.964C169.519 370.086 163.911 370.318 162.315 374.342L128.797 458.844C128.042 460.749 126.2 462 124.15 462H47.5577ZM258.252 149.435C256.672 145.291 250.88 145.104 249.034 149.136L196.628 263.643C196.001 265.013 196.025 266.594 196.695 267.945L249.106 373.653C251.014 377.502 256.567 377.312 258.207 373.342L301.878 267.645C302.365 266.466 302.383 265.146 301.929 263.954L258.252 149.435Z" />
</svg>
