<svg width="818" height="658" viewBox="0 0 818 658" fill="none" xmlns="http://www.w3.org/2000/svg">
<path opacity="0.11" d="M200.662 506.857C201.206 506.504 201.361 505.776 201.008 505.232C200.654 504.688 199.927 504.533 199.382 504.886C198.838 505.239 198.683 505.967 199.036 506.511C199.39 507.056 200.117 507.211 200.662 506.857Z" fill="white"/>
<path d="M207.377 510.199C207.785 509.934 207.901 509.388 207.636 508.98C207.371 508.572 206.826 508.456 206.417 508.721C206.009 508.985 205.893 509.531 206.158 509.939C206.423 510.347 206.968 510.463 207.377 510.199Z" fill="white"/>
<path d="M216.924 489.305C217.332 489.04 217.448 488.494 217.183 488.086C216.918 487.678 216.373 487.562 215.964 487.827C215.556 488.091 215.44 488.637 215.705 489.045C215.97 489.453 216.515 489.569 216.924 489.305Z" fill="white"/>
<path d="M174.409 515.492C174.817 515.227 174.933 514.681 174.668 514.273C174.403 513.865 173.857 513.749 173.449 514.014C173.041 514.278 172.925 514.824 173.19 515.232C173.455 515.64 174 515.757 174.409 515.492Z" fill="white"/>
<path opacity="0.11" d="M714.694 418.353C715.238 418 715.393 417.272 715.04 416.728C714.686 416.183 713.959 416.029 713.414 416.382C712.87 416.735 712.715 417.463 713.068 418.007C713.422 418.551 714.149 418.706 714.694 418.353Z" fill="white"/>
<path d="M698.303 413.588C698.575 413.411 698.653 413.048 698.476 412.776C698.3 412.504 697.936 412.427 697.664 412.603C697.392 412.78 697.315 413.143 697.492 413.415C697.668 413.687 698.032 413.764 698.303 413.588Z" fill="white"/>
<path d="M768.647 402.242C768.918 402.065 768.996 401.702 768.819 401.43C768.643 401.158 768.279 401.081 768.007 401.257C767.735 401.434 767.658 401.797 767.835 402.069C768.011 402.341 768.375 402.418 768.647 402.242Z" fill="white"/>
<path d="M319.045 457.337C319.317 457.161 319.395 456.797 319.218 456.525C319.042 456.253 318.678 456.176 318.406 456.352C318.134 456.529 318.057 456.892 318.233 457.164C318.41 457.436 318.773 457.514 319.045 457.337Z" fill="white"/>
<path d="M355.475 395.887C355.746 395.71 355.824 395.347 355.647 395.075C355.471 394.803 355.107 394.726 354.835 394.902C354.563 395.079 354.486 395.442 354.663 395.714C354.839 395.986 355.203 396.063 355.475 395.887Z" fill="white"/>
<path d="M398.029 419.38C398.301 419.204 398.379 418.84 398.202 418.568C398.026 418.296 397.662 418.219 397.39 418.395C397.118 418.572 397.041 418.935 397.217 419.207C397.394 419.479 397.757 419.557 398.029 419.38Z" fill="white"/>
<path d="M596.607 496.385C596.879 496.208 596.957 495.845 596.78 495.573C596.604 495.301 596.24 495.223 595.968 495.4C595.696 495.576 595.619 495.94 595.796 496.212C595.972 496.484 596.336 496.561 596.607 496.385Z" fill="white"/>
<path opacity="0.11" d="M571.96 474.577C572.231 474.4 572.309 474.037 572.132 473.765C571.956 473.493 571.592 473.416 571.32 473.592C571.048 473.769 570.971 474.132 571.148 474.404C571.324 474.676 571.688 474.753 571.96 474.577Z" fill="white"/>
<path opacity="0.11" d="M558.131 499.654C558.403 499.477 558.481 499.114 558.304 498.842C558.128 498.57 557.764 498.492 557.492 498.669C557.22 498.845 557.143 499.209 557.32 499.481C557.496 499.753 557.86 499.83 558.131 499.654Z" fill="white"/>
<path opacity="0.11" d="M593.569 518.663C593.84 518.486 593.918 518.123 593.741 517.851C593.565 517.579 593.201 517.502 592.929 517.678C592.657 517.854 592.58 518.218 592.757 518.49C592.933 518.762 593.297 518.839 593.569 518.663Z" fill="white"/>
<path opacity="0.11" d="M698.021 422.87C698.293 422.693 698.371 422.33 698.194 422.058C698.018 421.786 697.654 421.709 697.382 421.885C697.11 422.062 697.033 422.425 697.21 422.697C697.386 422.969 697.75 423.046 698.021 422.87Z" fill="white"/>
<path opacity="0.11" d="M779.178 420.616C779.45 420.439 779.528 420.076 779.351 419.804C779.175 419.532 778.811 419.455 778.539 419.631C778.267 419.808 778.19 420.171 778.367 420.443C778.543 420.715 778.907 420.792 779.178 420.616Z" fill="white"/>
<path opacity="0.11" d="M313.56 479.096C313.832 478.919 313.91 478.556 313.733 478.284C313.557 478.012 313.193 477.935 312.921 478.111C312.649 478.288 312.572 478.651 312.748 478.923C312.925 479.195 313.289 479.272 313.56 479.096Z" fill="white"/>
<path opacity="0.3" d="M611.279 469.362C611.551 469.185 611.629 468.822 611.452 468.55C611.276 468.278 610.912 468.201 610.64 468.377C610.368 468.553 610.291 468.917 610.468 469.189C610.644 469.461 611.008 469.538 611.279 469.362Z" fill="white"/>
<path d="M150.319 494.018C150.59 493.842 150.668 493.478 150.491 493.206C150.315 492.934 149.951 492.857 149.679 493.033C149.407 493.21 149.33 493.573 149.507 493.845C149.683 494.117 150.047 494.195 150.319 494.018Z" fill="white"/>
<path d="M225.546 443.801C225.818 443.625 225.895 443.261 225.718 442.989C225.542 442.717 225.178 442.64 224.906 442.816C224.635 442.993 224.557 443.356 224.734 443.628C224.91 443.9 225.274 443.977 225.546 443.801Z" fill="white"/>
<path d="M703.233 436.292C703.504 436.115 703.582 435.752 703.405 435.48C703.229 435.208 702.865 435.131 702.593 435.307C702.322 435.484 702.244 435.847 702.421 436.119C702.597 436.391 702.961 436.468 703.233 436.292Z" fill="white"/>
<path opacity="0.3" d="M668.748 458.672C669.02 458.495 669.098 458.132 668.921 457.86C668.745 457.588 668.381 457.511 668.109 457.687C667.837 457.864 667.76 458.227 667.936 458.499C668.113 458.771 668.476 458.848 668.748 458.672Z" fill="white"/>
<path opacity="0.11" d="M608.538 454.341C608.809 454.164 608.887 453.801 608.71 453.529C608.534 453.257 608.17 453.18 607.898 453.356C607.626 453.532 607.549 453.896 607.726 454.168C607.902 454.44 608.266 454.517 608.538 454.341Z" fill="white"/>
<path opacity="0.3" d="M166.866 500.086C167.137 499.909 167.215 499.546 167.038 499.274C166.862 499.002 166.498 498.925 166.226 499.101C165.954 499.278 165.877 499.641 166.054 499.913C166.23 500.185 166.594 500.262 166.866 500.086Z" fill="white"/>
<path opacity="0.3" d="M717.685 440.217C717.957 440.04 718.035 439.677 717.858 439.405C717.682 439.133 717.318 439.055 717.046 439.232C716.774 439.408 716.697 439.772 716.873 440.044C717.05 440.316 717.414 440.393 717.685 440.217Z" fill="white"/>
<path opacity="0.3" d="M661.271 483.826C661.543 483.649 661.621 483.286 661.444 483.014C661.268 482.742 660.904 482.665 660.632 482.841C660.36 483.018 660.283 483.381 660.46 483.653C660.636 483.925 661 484.002 661.271 483.826Z" fill="white"/>
<path opacity="0.3" d="M625.569 460.093C625.84 459.916 625.918 459.553 625.741 459.281C625.565 459.009 625.201 458.931 624.929 459.108C624.657 459.284 624.58 459.648 624.757 459.92C624.933 460.192 625.297 460.269 625.569 460.093Z" fill="white"/>
<path opacity="0.3" d="M374.022 384.553C374.293 384.376 374.371 384.013 374.194 383.741C374.018 383.469 373.654 383.392 373.382 383.568C373.11 383.745 373.033 384.108 373.21 384.38C373.386 384.652 373.75 384.729 374.022 384.553Z" fill="white"/>
<path opacity="0.11" d="M281.6 415.824C281.871 415.647 281.949 415.284 281.772 415.012C281.596 414.74 281.232 414.663 280.96 414.839C280.688 415.016 280.611 415.379 280.788 415.651C280.964 415.923 281.328 416 281.6 415.824Z" fill="white"/>
<path opacity="0.11" d="M374.467 414.365C374.739 414.188 374.817 413.825 374.64 413.553C374.464 413.281 374.1 413.204 373.828 413.38C373.556 413.557 373.479 413.92 373.655 414.192C373.832 414.464 374.196 414.541 374.467 414.365Z" fill="white"/>
<path opacity="0.3" d="M252.709 499.684C253.253 499.331 253.408 498.603 253.055 498.059C252.701 497.515 251.974 497.36 251.429 497.713C250.885 498.066 250.73 498.794 251.083 499.338C251.437 499.883 252.164 500.037 252.709 499.684Z" fill="white"/>
<path opacity="0.11" d="M272.186 466.043C272.73 465.69 272.885 464.962 272.532 464.418C272.178 463.874 271.451 463.719 270.906 464.072C270.362 464.425 270.207 465.153 270.56 465.697C270.914 466.242 271.641 466.397 272.186 466.043Z" fill="white"/>
<path d="M260.752 448.961C261.16 448.696 261.276 448.15 261.011 447.742C260.746 447.334 260.2 447.218 259.792 447.483C259.384 447.747 259.268 448.293 259.533 448.701C259.798 449.109 260.343 449.226 260.752 448.961Z" fill="white"/>
<path d="M817.331 397.958C817.739 397.693 817.855 397.147 817.59 396.739C817.325 396.331 816.78 396.215 816.371 396.48C815.963 396.745 815.847 397.29 816.112 397.698C816.377 398.106 816.922 398.223 817.331 397.958Z" fill="white"/>
<path d="M430.275 426.46C430.684 426.195 430.8 425.649 430.535 425.241C430.27 424.833 429.724 424.717 429.316 424.982C428.908 425.246 428.792 425.792 429.057 426.2C429.322 426.608 429.867 426.724 430.275 426.46Z" fill="white"/>
<path d="M662.12 500.778C662.528 500.514 662.644 499.968 662.379 499.56C662.114 499.152 661.569 499.036 661.16 499.3C660.752 499.565 660.636 500.111 660.901 500.519C661.166 500.927 661.711 501.043 662.12 500.778Z" fill="white"/>
<path d="M589.252 531.966C589.66 531.702 589.776 531.156 589.511 530.748C589.246 530.34 588.701 530.224 588.292 530.488C587.884 530.753 587.768 531.299 588.033 531.707C588.298 532.115 588.843 532.231 589.252 531.966Z" fill="white"/>
<path d="M568.088 517.696C568.496 517.432 568.612 516.886 568.347 516.478C568.082 516.07 567.536 515.954 567.128 516.218C566.72 516.483 566.604 517.029 566.869 517.437C567.134 517.845 567.679 517.961 568.088 517.696Z" fill="white"/>
<path d="M243.502 474.159C243.91 473.894 244.026 473.348 243.761 472.94C243.496 472.532 242.95 472.416 242.542 472.681C242.134 472.945 242.018 473.491 242.283 473.899C242.548 474.307 243.093 474.424 243.502 474.159Z" fill="white"/>
<path d="M738.44 441.452C738.848 441.187 738.964 440.641 738.699 440.233C738.434 439.825 737.889 439.709 737.48 439.974C737.072 440.238 736.956 440.784 737.221 441.192C737.486 441.6 738.031 441.716 738.44 441.452Z" fill="white"/>
<path d="M319.331 506.861C319.739 506.596 319.855 506.05 319.59 505.642C319.325 505.234 318.78 505.118 318.371 505.383C317.963 505.648 317.847 506.193 318.112 506.601C318.377 507.009 318.922 507.126 319.331 506.861Z" fill="white"/>
<path d="M428.135 388.642C428.543 388.377 428.659 387.831 428.394 387.423C428.129 387.015 427.583 386.899 427.175 387.164C426.767 387.429 426.651 387.974 426.916 388.382C427.181 388.79 427.726 388.907 428.135 388.642Z" fill="white"/>
<path d="M422.377 353.875C422.785 353.61 422.901 353.064 422.636 352.656C422.371 352.248 421.825 352.132 421.417 352.397C421.009 352.662 420.893 353.207 421.158 353.615C421.423 354.023 421.968 354.14 422.377 353.875Z" fill="white"/>
<path opacity="0.3" d="M301.717 423.077C302.261 422.724 302.416 421.996 302.063 421.452C301.709 420.908 300.982 420.753 300.437 421.106C299.893 421.459 299.738 422.187 300.091 422.731C300.445 423.276 301.172 423.431 301.717 423.077Z" fill="white"/>
<path d="M279.014 388.102C279.558 387.749 279.713 387.021 279.36 386.477C279.006 385.933 278.279 385.778 277.734 386.131C277.19 386.484 277.035 387.212 277.388 387.756C277.742 388.301 278.469 388.456 279.014 388.102Z" fill="white"/>
<path d="M334.119 417.452C334.528 417.187 334.644 416.641 334.379 416.233C334.114 415.825 333.568 415.709 333.16 415.974C332.752 416.238 332.636 416.784 332.901 417.192C333.166 417.6 333.711 417.716 334.119 417.452Z" fill="white"/>
<path opacity="0.3" d="M345.545 382.733C346.089 382.38 346.244 381.652 345.891 381.108C345.537 380.564 344.81 380.409 344.265 380.762C343.721 381.115 343.566 381.843 343.919 382.387C344.273 382.932 345 383.086 345.545 382.733Z" fill="white"/>
<path opacity="0.3" d="M417.014 386.06C417.558 385.707 417.713 384.979 417.36 384.435C417.006 383.891 416.279 383.736 415.734 384.089C415.19 384.442 415.035 385.17 415.388 385.714C415.742 386.259 416.469 386.414 417.014 386.06Z" fill="white"/>
<path opacity="0.3" d="M360.014 424.449C360.558 424.096 360.713 423.368 360.36 422.824C360.006 422.28 359.279 422.125 358.734 422.478C358.19 422.831 358.035 423.559 358.388 424.103C358.742 424.648 359.469 424.803 360.014 424.449Z" fill="white"/>
<path opacity="0.3" d="M639.678 491.54C640.222 491.187 640.377 490.459 640.024 489.915C639.67 489.37 638.943 489.216 638.398 489.569C637.854 489.922 637.699 490.65 638.052 491.194C638.405 491.738 639.133 491.893 639.678 491.54Z" fill="white"/>
<path opacity="0.3" d="M582.186 490.342C582.73 489.989 582.885 489.261 582.532 488.717C582.178 488.172 581.451 488.018 580.906 488.371C580.362 488.724 580.207 489.452 580.56 489.996C580.914 490.54 581.641 490.695 582.186 490.342Z" fill="white"/>
<path opacity="0.11" d="M387.225 384.389C387.769 384.036 387.924 383.308 387.571 382.764C387.217 382.22 386.49 382.065 385.945 382.418C385.401 382.771 385.246 383.499 385.599 384.043C385.953 384.588 386.68 384.743 387.225 384.389Z" fill="white"/>
<path opacity="0.3" d="M641.764 427.877C642.308 427.524 642.463 426.796 642.11 426.252C641.756 425.707 641.029 425.553 640.484 425.906C639.94 426.259 639.785 426.987 640.138 427.531C640.492 428.075 641.219 428.23 641.764 427.877Z" fill="white"/>
<path opacity="0.11" d="M622.069 426.656C622.613 426.303 622.768 425.575 622.415 425.031C622.061 424.486 621.334 424.332 620.789 424.685C620.245 425.038 620.09 425.766 620.443 426.31C620.796 426.854 621.524 427.009 622.069 426.656Z" fill="white"/>
<path opacity="0.3" d="M638.592 460.741C639.136 460.388 639.291 459.66 638.938 459.116C638.584 458.571 637.857 458.417 637.312 458.77C636.768 459.123 636.613 459.851 636.966 460.395C637.32 460.939 638.047 461.094 638.592 460.741Z" fill="white"/>
<path d="M669.056 440.268C669.465 440.004 669.581 439.458 669.316 439.05C669.051 438.642 668.505 438.526 668.097 438.79C667.689 439.055 667.573 439.601 667.838 440.009C668.103 440.417 668.648 440.533 669.056 440.268Z" fill="white"/>
<path opacity="0.11" d="M273.397 245.859C273.941 245.506 274.096 244.778 273.743 244.234C273.389 243.69 272.662 243.535 272.117 243.888C271.573 244.241 271.418 244.969 271.771 245.513C272.125 246.058 272.852 246.213 273.397 245.859Z" fill="white"/>
<path d="M280.112 249.202C280.52 248.937 280.636 248.391 280.371 247.983C280.106 247.575 279.561 247.459 279.152 247.724C278.744 247.988 278.628 248.534 278.893 248.942C279.158 249.35 279.703 249.466 280.112 249.202Z" fill="white"/>
<path d="M289.659 228.307C290.067 228.042 290.183 227.496 289.918 227.088C289.653 226.68 289.108 226.564 288.699 226.829C288.291 227.093 288.175 227.639 288.44 228.047C288.705 228.455 289.25 228.571 289.659 228.307Z" fill="white"/>
<path d="M247.143 254.495C247.551 254.23 247.667 253.684 247.402 253.276C247.137 252.868 246.592 252.752 246.183 253.016C245.775 253.281 245.659 253.827 245.924 254.235C246.189 254.643 246.734 254.759 247.143 254.495Z" fill="white"/>
<path opacity="0.11" d="M230.428 282.143C230.972 281.79 231.127 281.062 230.774 280.518C230.42 279.974 229.693 279.819 229.148 280.172C228.604 280.525 228.449 281.253 228.802 281.797C229.156 282.342 229.883 282.496 230.428 282.143Z" fill="white"/>
<path d="M214.037 277.379C214.309 277.203 214.387 276.839 214.21 276.567C214.034 276.295 213.67 276.218 213.398 276.394C213.126 276.571 213.049 276.934 213.226 277.206C213.402 277.478 213.766 277.556 214.037 277.379Z" fill="white"/>
<path d="M284.382 266.032C284.653 265.855 284.731 265.492 284.554 265.22C284.378 264.948 284.014 264.871 283.742 265.047C283.47 265.224 283.393 265.587 283.57 265.859C283.746 266.131 284.11 266.208 284.382 266.032Z" fill="white"/>
<path d="M391.779 196.34C392.051 196.164 392.129 195.8 391.952 195.528C391.776 195.256 391.412 195.179 391.14 195.355C390.868 195.532 390.791 195.895 390.967 196.167C391.144 196.439 391.508 196.517 391.779 196.34Z" fill="white"/>
<path d="M428.21 134.89C428.481 134.714 428.559 134.35 428.382 134.078C428.206 133.806 427.842 133.729 427.57 133.905C427.298 134.082 427.221 134.445 427.398 134.717C427.574 134.989 427.938 135.067 428.21 134.89Z" fill="white"/>
<path d="M470.763 158.385C471.035 158.208 471.113 157.845 470.936 157.573C470.76 157.301 470.396 157.224 470.124 157.4C469.852 157.577 469.775 157.94 469.952 158.212C470.128 158.484 470.492 158.561 470.763 158.385Z" fill="white"/>
<path d="M112.342 360.175C112.614 359.999 112.692 359.635 112.515 359.363C112.339 359.091 111.975 359.014 111.703 359.19C111.431 359.367 111.354 359.73 111.53 360.002C111.707 360.274 112.07 360.352 112.342 360.175Z" fill="white"/>
<path opacity="0.11" d="M87.6935 338.367C87.9654 338.191 88.0428 337.827 87.8663 337.555C87.6899 337.283 87.3264 337.206 87.0544 337.382C86.7825 337.559 86.7051 337.922 86.8815 338.194C87.058 338.466 87.4216 338.544 87.6935 338.367Z" fill="white"/>
<path opacity="0.11" d="M73.8655 363.444C74.1374 363.268 74.2148 362.904 74.0384 362.632C73.8619 362.36 73.4984 362.283 73.2264 362.459C72.9545 362.636 72.8771 362.999 73.0536 363.271C73.23 363.543 73.5935 363.621 73.8655 363.444Z" fill="white"/>
<path opacity="0.11" d="M109.303 382.453C109.575 382.277 109.653 381.913 109.476 381.641C109.3 381.369 108.936 381.292 108.664 381.468C108.392 381.645 108.315 382.008 108.492 382.28C108.668 382.552 109.032 382.63 109.303 382.453Z" fill="white"/>
<path opacity="0.11" d="M213.756 286.66C214.028 286.484 214.106 286.12 213.929 285.848C213.753 285.576 213.389 285.499 213.117 285.675C212.845 285.852 212.768 286.215 212.945 286.487C213.121 286.759 213.485 286.837 213.756 286.66Z" fill="white"/>
<path opacity="0.11" d="M294.912 284.406C295.184 284.229 295.262 283.866 295.085 283.594C294.909 283.322 294.545 283.245 294.273 283.421C294.001 283.598 293.924 283.961 294.101 284.233C294.277 284.505 294.641 284.582 294.912 284.406Z" fill="white"/>
<path opacity="0.11" d="M386.295 218.098C386.567 217.922 386.645 217.558 386.468 217.286C386.292 217.014 385.928 216.937 385.656 217.113C385.384 217.29 385.307 217.653 385.483 217.925C385.66 218.197 386.024 218.275 386.295 218.098Z" fill="white"/>
<path opacity="0.3" d="M127.013 333.153C127.285 332.977 127.363 332.613 127.186 332.341C127.01 332.069 126.646 331.992 126.374 332.168C126.102 332.345 126.025 332.708 126.202 332.98C126.378 333.252 126.742 333.33 127.013 333.153Z" fill="white"/>
<path d="M223.053 233.02C223.325 232.844 223.403 232.48 223.226 232.208C223.05 231.936 222.686 231.859 222.414 232.035C222.142 232.212 222.065 232.575 222.242 232.847C222.418 233.119 222.782 233.196 223.053 233.02Z" fill="white"/>
<path d="M298.279 182.803C298.551 182.626 298.629 182.263 298.452 181.991C298.276 181.719 297.912 181.642 297.64 181.818C297.368 181.995 297.291 182.358 297.468 182.63C297.644 182.902 298.008 182.979 298.279 182.803Z" fill="white"/>
<path d="M218.967 300.083C219.239 299.906 219.317 299.543 219.14 299.271C218.964 298.999 218.6 298.922 218.328 299.098C218.056 299.275 217.979 299.638 218.155 299.91C218.332 300.182 218.695 300.259 218.967 300.083Z" fill="white"/>
<path opacity="0.3" d="M184.482 322.462C184.754 322.286 184.832 321.922 184.655 321.65C184.479 321.378 184.115 321.301 183.843 321.477C183.571 321.654 183.494 322.017 183.67 322.289C183.847 322.561 184.21 322.639 184.482 322.462Z" fill="white"/>
<path opacity="0.11" d="M124.272 318.132C124.543 317.956 124.621 317.592 124.444 317.32C124.268 317.048 123.904 316.971 123.632 317.147C123.36 317.324 123.283 317.687 123.46 317.959C123.636 318.231 124 318.309 124.272 318.132Z" fill="white"/>
<path opacity="0.3" d="M239.6 239.088C239.871 238.912 239.949 238.548 239.772 238.276C239.596 238.004 239.232 237.927 238.96 238.103C238.688 238.28 238.611 238.643 238.788 238.915C238.964 239.187 239.328 239.265 239.6 239.088Z" fill="white"/>
<path opacity="0.3" d="M233.42 304.007C233.692 303.831 233.77 303.467 233.593 303.195C233.417 302.923 233.053 302.846 232.781 303.022C232.509 303.199 232.432 303.562 232.608 303.834C232.785 304.106 233.149 304.184 233.42 304.007Z" fill="white"/>
<path opacity="0.3" d="M177.006 347.617C177.278 347.441 177.356 347.077 177.179 346.805C177.003 346.533 176.639 346.456 176.367 346.632C176.095 346.809 176.018 347.172 176.195 347.444C176.371 347.716 176.735 347.794 177.006 347.617Z" fill="white"/>
<path opacity="0.3" d="M141.303 323.883C141.575 323.707 141.653 323.343 141.476 323.071C141.3 322.799 140.936 322.722 140.664 322.898C140.392 323.075 140.315 323.438 140.492 323.71C140.668 323.982 141.032 324.06 141.303 323.883Z" fill="white"/>
<path opacity="0.3" d="M446.756 123.555C447.028 123.378 447.106 123.015 446.929 122.743C446.753 122.471 446.389 122.394 446.117 122.57C445.845 122.747 445.768 123.11 445.945 123.382C446.121 123.654 446.485 123.731 446.756 123.555Z" fill="white"/>
<path opacity="0.11" d="M354.335 154.827C354.606 154.651 354.684 154.287 354.507 154.015C354.331 153.743 353.967 153.666 353.695 153.842C353.423 154.019 353.346 154.382 353.523 154.654C353.699 154.926 354.063 155.004 354.335 154.827Z" fill="white"/>
<path opacity="0.11" d="M447.201 153.368C447.473 153.192 447.551 152.828 447.374 152.556C447.198 152.284 446.834 152.207 446.562 152.383C446.29 152.56 446.213 152.923 446.389 153.195C446.566 153.467 446.93 153.545 447.201 153.368Z" fill="white"/>
<path opacity="0.3" d="M325.444 238.687C325.988 238.334 326.143 237.606 325.79 237.062C325.436 236.518 324.709 236.363 324.164 236.716C323.62 237.069 323.465 237.797 323.818 238.341C324.172 238.886 324.899 239.041 325.444 238.687Z" fill="white"/>
<path opacity="0.11" d="M344.92 205.045C345.464 204.692 345.619 203.964 345.266 203.42C344.912 202.876 344.185 202.721 343.64 203.074C343.096 203.427 342.941 204.155 343.294 204.699C343.648 205.244 344.375 205.399 344.92 205.045Z" fill="white"/>
<path d="M333.487 187.963C333.895 187.698 334.011 187.152 333.746 186.744C333.481 186.336 332.936 186.22 332.527 186.485C332.119 186.749 332.003 187.295 332.268 187.703C332.533 188.111 333.078 188.227 333.487 187.963Z" fill="white"/>
<path d="M333.065 261.748C333.473 261.483 333.589 260.937 333.324 260.529C333.059 260.121 332.514 260.005 332.105 260.27C331.697 260.535 331.581 261.08 331.846 261.488C332.111 261.896 332.656 262.013 333.065 261.748Z" fill="white"/>
<path d="M503.01 165.462C503.418 165.197 503.534 164.651 503.269 164.243C503.004 163.835 502.458 163.719 502.05 163.984C501.642 164.248 501.526 164.794 501.791 165.202C502.056 165.61 502.601 165.726 503.01 165.462Z" fill="white"/>
<path d="M177.854 364.569C178.262 364.304 178.378 363.758 178.113 363.35C177.848 362.942 177.302 362.826 176.894 363.09C176.486 363.355 176.37 363.901 176.635 364.309C176.9 364.717 177.445 364.833 177.854 364.569Z" fill="white"/>
<path d="M104.987 395.757C105.395 395.492 105.511 394.946 105.246 394.538C104.981 394.13 104.435 394.014 104.027 394.279C103.619 394.544 103.503 395.089 103.768 395.497C104.033 395.905 104.578 396.022 104.987 395.757Z" fill="white"/>
<path d="M83.8225 381.487C84.2306 381.222 84.3468 380.676 84.0819 380.268C83.817 379.86 83.2714 379.744 82.8633 380.009C82.4551 380.274 82.339 380.819 82.6039 381.227C82.8687 381.635 83.4143 381.752 83.8225 381.487Z" fill="white"/>
<path d="M316.237 213.162C316.645 212.897 316.761 212.351 316.496 211.943C316.231 211.535 315.686 211.419 315.277 211.683C314.869 211.948 314.753 212.494 315.018 212.902C315.283 213.31 315.828 213.426 316.237 213.162Z" fill="white"/>
<path d="M254.174 305.242C254.582 304.977 254.698 304.431 254.433 304.023C254.168 303.615 253.623 303.499 253.214 303.764C252.806 304.028 252.69 304.574 252.955 304.982C253.22 305.39 253.765 305.506 254.174 305.242Z" fill="white"/>
<path d="M392.065 245.863C392.473 245.598 392.589 245.052 392.324 244.644C392.059 244.236 391.514 244.12 391.105 244.385C390.697 244.65 390.581 245.195 390.846 245.603C391.111 246.011 391.656 246.128 392.065 245.863Z" fill="white"/>
<path d="M500.87 127.644C501.278 127.379 501.394 126.833 501.129 126.425C500.864 126.017 500.319 125.901 499.91 126.166C499.502 126.431 499.386 126.976 499.651 127.384C499.916 127.792 500.461 127.909 500.87 127.644Z" fill="white"/>
<path d="M495.112 92.8776C495.52 92.6127 495.636 92.0671 495.371 91.659C495.106 91.2508 494.56 91.1347 494.152 91.3996C493.744 91.6644 493.628 92.21 493.893 92.6182C494.158 93.0263 494.703 93.1425 495.112 92.8776Z" fill="white"/>
<path opacity="0.3" d="M374.451 162.079C374.995 161.726 375.15 160.998 374.797 160.454C374.443 159.91 373.716 159.755 373.171 160.108C372.627 160.461 372.472 161.189 372.825 161.733C373.179 162.278 373.906 162.432 374.451 162.079Z" fill="white"/>
<path d="M351.748 127.104C352.292 126.751 352.447 126.023 352.094 125.479C351.74 124.935 351.013 124.78 350.468 125.133C349.924 125.486 349.769 126.214 350.122 126.758C350.476 127.303 351.203 127.458 351.748 127.104Z" fill="white"/>
<path d="M406.853 156.454C407.262 156.189 407.378 155.643 407.113 155.235C406.848 154.827 406.302 154.711 405.894 154.975C405.486 155.24 405.37 155.786 405.635 156.194C405.9 156.602 406.445 156.718 406.853 156.454Z" fill="white"/>
<path opacity="0.3" d="M418.28 121.735C418.824 121.382 418.979 120.654 418.626 120.11C418.272 119.566 417.545 119.411 417 119.764C416.456 120.117 416.301 120.845 416.654 121.389C417.008 121.934 417.735 122.088 418.28 121.735Z" fill="white"/>
<path opacity="0.3" d="M489.748 125.062C490.292 124.709 490.447 123.981 490.094 123.437C489.74 122.893 489.013 122.738 488.468 123.091C487.924 123.444 487.769 124.172 488.122 124.716C488.476 125.261 489.203 125.416 489.748 125.062Z" fill="white"/>
<path opacity="0.3" d="M432.748 163.451C433.292 163.098 433.447 162.37 433.094 161.826C432.74 161.282 432.013 161.127 431.468 161.48C430.924 161.833 430.769 162.561 431.122 163.105C431.476 163.65 432.203 163.805 432.748 163.451Z" fill="white"/>
<path opacity="0.3" d="M155.412 355.33C155.956 354.977 156.111 354.249 155.758 353.705C155.404 353.161 154.677 353.006 154.132 353.359C153.588 353.712 153.433 354.44 153.786 354.984C154.14 355.529 154.867 355.683 155.412 355.33Z" fill="white"/>
<path opacity="0.3" d="M97.9196 354.133C98.4639 353.78 98.6188 353.052 98.2656 352.508C97.9123 351.964 97.1847 351.809 96.6403 352.162C96.0959 352.515 95.941 353.243 96.2943 353.787C96.6476 354.331 97.3752 354.486 97.9196 354.133Z" fill="white"/>
<path opacity="0.11" d="M459.959 123.391C460.503 123.038 460.658 122.31 460.305 121.766C459.951 121.222 459.224 121.067 458.679 121.42C458.135 121.773 457.98 122.501 458.333 123.045C458.687 123.59 459.414 123.744 459.959 123.391Z" fill="white"/>
<path opacity="0.3" d="M157.498 291.668C158.042 291.315 158.197 290.587 157.844 290.043C157.49 289.499 156.763 289.344 156.218 289.697C155.674 290.05 155.519 290.778 155.872 291.322C156.226 291.867 156.953 292.022 157.498 291.668Z" fill="white"/>
<path opacity="0.11" d="M137.803 290.446C138.347 290.093 138.502 289.365 138.149 288.821C137.795 288.277 137.068 288.122 136.523 288.475C135.979 288.828 135.824 289.556 136.177 290.1C136.531 290.645 137.258 290.799 137.803 290.446Z" fill="white"/>
<path opacity="0.3" d="M154.326 324.532C154.87 324.179 155.025 323.451 154.672 322.907C154.318 322.363 153.591 322.208 153.046 322.561C152.502 322.914 152.347 323.642 152.7 324.186C153.054 324.731 153.781 324.886 154.326 324.532Z" fill="white"/>
<path d="M184.792 304.059C185.2 303.794 185.316 303.248 185.051 302.84C184.786 302.432 184.241 302.316 183.832 302.581C183.424 302.846 183.308 303.391 183.573 303.799C183.838 304.207 184.383 304.324 184.792 304.059Z" fill="white"/>
<path opacity="0.11" d="M582.53 154.94C583.074 154.587 583.229 153.859 582.876 153.315C582.522 152.771 581.795 152.616 581.25 152.969C580.706 153.322 580.551 154.05 580.904 154.594C581.258 155.139 581.985 155.294 582.53 154.94Z" fill="white"/>
<path d="M481.698 411.282C482.106 411.017 482.222 410.471 481.958 410.063C481.693 409.655 481.147 409.539 480.739 409.804C480.331 410.068 480.215 410.614 480.48 411.022C480.744 411.43 481.29 411.547 481.698 411.282Z" fill="white"/>
<path d="M491.245 390.388C491.653 390.123 491.769 389.577 491.505 389.169C491.24 388.761 490.694 388.645 490.286 388.91C489.878 389.174 489.762 389.72 490.027 390.128C490.291 390.536 490.837 390.652 491.245 390.388Z" fill="white"/>
<path d="M556.276 163.575C556.684 163.31 556.8 162.764 556.535 162.356C556.27 161.948 555.725 161.832 555.316 162.097C554.908 162.361 554.792 162.907 555.057 163.315C555.322 163.723 555.867 163.839 556.276 163.575Z" fill="white"/>
<path opacity="0.11" d="M539.561 191.223C540.105 190.87 540.26 190.142 539.907 189.598C539.553 189.054 538.826 188.899 538.281 189.252C537.737 189.605 537.582 190.333 537.935 190.877C538.289 191.422 539.016 191.577 539.561 191.223Z" fill="white"/>
<path d="M523.171 186.459C523.442 186.282 523.52 185.919 523.343 185.647C523.167 185.375 522.803 185.298 522.531 185.474C522.259 185.651 522.182 186.014 522.359 186.286C522.535 186.558 522.899 186.635 523.171 186.459Z" fill="white"/>
<path d="M485.967 428.113C486.239 427.937 486.316 427.573 486.14 427.301C485.963 427.029 485.6 426.952 485.328 427.128C485.056 427.305 484.979 427.668 485.155 427.94C485.332 428.212 485.695 428.289 485.967 428.113Z" fill="white"/>
<path d="M593.366 358.42C593.638 358.243 593.715 357.88 593.539 357.608C593.362 357.336 592.999 357.259 592.727 357.435C592.455 357.612 592.378 357.975 592.554 358.247C592.731 358.519 593.094 358.596 593.366 358.42Z" fill="white"/>
<path d="M629.796 296.97C630.068 296.793 630.145 296.43 629.969 296.158C629.792 295.886 629.429 295.809 629.157 295.985C628.885 296.162 628.808 296.525 628.984 296.797C629.161 297.069 629.524 297.146 629.796 296.97Z" fill="white"/>
<path d="M672.35 320.463C672.622 320.287 672.699 319.923 672.523 319.651C672.347 319.379 671.983 319.302 671.711 319.478C671.439 319.655 671.362 320.018 671.538 320.29C671.715 320.562 672.078 320.64 672.35 320.463Z" fill="white"/>
<path d="M421.475 269.256C421.746 269.08 421.824 268.716 421.647 268.444C421.471 268.172 421.107 268.095 420.835 268.271C420.563 268.448 420.486 268.811 420.663 269.083C420.839 269.355 421.203 269.433 421.475 269.256Z" fill="white"/>
<path opacity="0.11" d="M396.826 247.448C397.098 247.271 397.176 246.908 396.999 246.636C396.823 246.364 396.459 246.287 396.187 246.463C395.915 246.64 395.838 247.003 396.014 247.275C396.191 247.547 396.554 247.624 396.826 247.448Z" fill="white"/>
<path opacity="0.11" d="M382.998 272.525C383.27 272.349 383.348 271.985 383.171 271.713C382.995 271.441 382.631 271.364 382.359 271.54C382.087 271.717 382.01 272.08 382.186 272.352C382.363 272.624 382.727 272.702 382.998 272.525Z" fill="white"/>
<path opacity="0.11" d="M418.435 291.534C418.707 291.358 418.785 290.994 418.608 290.722C418.432 290.45 418.068 290.373 417.796 290.549C417.524 290.726 417.447 291.089 417.624 291.361C417.8 291.633 418.164 291.711 418.435 291.534Z" fill="white"/>
<path opacity="0.11" d="M522.888 195.74C523.16 195.563 523.238 195.2 523.061 194.928C522.885 194.656 522.521 194.579 522.249 194.755C521.977 194.932 521.9 195.295 522.077 195.567C522.253 195.839 522.617 195.916 522.888 195.74Z" fill="white"/>
<path opacity="0.11" d="M496.491 446.487C496.763 446.311 496.84 445.947 496.664 445.675C496.487 445.403 496.124 445.326 495.852 445.502C495.58 445.679 495.503 446.042 495.679 446.314C495.856 446.586 496.219 446.664 496.491 446.487Z" fill="white"/>
<path opacity="0.11" d="M587.882 380.179C588.154 380.002 588.231 379.639 588.055 379.367C587.878 379.095 587.515 379.018 587.243 379.194C586.971 379.371 586.894 379.734 587.07 380.006C587.247 380.278 587.61 380.355 587.882 380.179Z" fill="white"/>
<path opacity="0.3" d="M436.147 242.233C436.418 242.057 436.496 241.693 436.319 241.421C436.143 241.149 435.779 241.072 435.507 241.248C435.235 241.425 435.158 241.788 435.335 242.06C435.511 242.332 435.875 242.41 436.147 242.233Z" fill="white"/>
<path d="M532.185 142.101C532.457 141.925 532.535 141.561 532.358 141.289C532.182 141.017 531.818 140.94 531.546 141.116C531.274 141.293 531.197 141.656 531.373 141.928C531.55 142.2 531.914 142.278 532.185 142.101Z" fill="white"/>
<path d="M499.866 344.884C500.138 344.708 500.215 344.344 500.039 344.072C499.862 343.8 499.499 343.723 499.227 343.899C498.955 344.076 498.878 344.439 499.054 344.711C499.231 344.983 499.594 345.061 499.866 344.884Z" fill="white"/>
<path d="M528.1 209.164C528.371 208.988 528.449 208.624 528.272 208.352C528.096 208.08 527.732 208.003 527.46 208.179C527.189 208.356 527.111 208.719 527.288 208.991C527.464 209.263 527.828 209.341 528.1 209.164Z" fill="white"/>
<path opacity="0.3" d="M493.615 231.543C493.887 231.366 493.965 231.003 493.788 230.731C493.612 230.459 493.248 230.382 492.976 230.558C492.704 230.735 492.627 231.098 492.804 231.37C492.98 231.642 493.344 231.719 493.615 231.543Z" fill="white"/>
<path opacity="0.11" d="M433.404 227.212C433.676 227.036 433.754 226.672 433.577 226.4C433.401 226.128 433.037 226.051 432.765 226.227C432.493 226.404 432.416 226.767 432.592 227.039C432.769 227.311 433.132 227.389 433.404 227.212Z" fill="white"/>
<path opacity="0.3" d="M548.732 148.169C549.004 147.992 549.082 147.629 548.905 147.357C548.729 147.085 548.365 147.008 548.093 147.184C547.821 147.361 547.744 147.724 547.921 147.996C548.097 148.268 548.461 148.345 548.732 148.169Z" fill="white"/>
<path opacity="0.3" d="M542.553 213.088C542.825 212.912 542.903 212.548 542.726 212.276C542.55 212.004 542.186 211.927 541.914 212.103C541.642 212.28 541.565 212.643 541.742 212.915C541.918 213.187 542.282 213.265 542.553 213.088Z" fill="white"/>
<path opacity="0.3" d="M486.138 256.697C486.41 256.52 486.488 256.157 486.311 255.885C486.135 255.613 485.771 255.536 485.499 255.712C485.227 255.889 485.15 256.252 485.327 256.524C485.503 256.796 485.867 256.873 486.138 256.697Z" fill="white"/>
<path opacity="0.3" d="M450.435 232.964C450.707 232.788 450.785 232.424 450.608 232.152C450.432 231.88 450.068 231.803 449.796 231.979C449.524 232.156 449.447 232.519 449.624 232.791C449.8 233.063 450.164 233.141 450.435 232.964Z" fill="white"/>
<path opacity="0.3" d="M648.342 285.636C648.614 285.459 648.692 285.096 648.515 284.824C648.339 284.552 647.975 284.475 647.703 284.651C647.431 284.828 647.354 285.191 647.53 285.463C647.707 285.735 648.07 285.812 648.342 285.636Z" fill="white"/>
<path opacity="0.11" d="M555.921 316.907C556.193 316.73 556.27 316.367 556.094 316.095C555.917 315.823 555.554 315.746 555.282 315.922C555.01 316.099 554.933 316.462 555.109 316.734C555.286 317.006 555.649 317.083 555.921 316.907Z" fill="white"/>
<path opacity="0.11" d="M648.788 315.448C649.06 315.272 649.137 314.908 648.961 314.636C648.784 314.364 648.421 314.287 648.149 314.463C647.877 314.64 647.8 315.003 647.976 315.275C648.153 315.547 648.516 315.624 648.788 315.448Z" fill="white"/>
<path opacity="0.3" d="M527.029 400.767C527.574 400.414 527.728 399.686 527.375 399.142C527.022 398.598 526.294 398.443 525.75 398.796C525.206 399.149 525.051 399.877 525.404 400.421C525.757 400.966 526.485 401.12 527.029 400.767Z" fill="white"/>
<path opacity="0.11" d="M546.506 367.126C547.051 366.773 547.205 366.045 546.852 365.501C546.499 364.957 545.771 364.802 545.227 365.155C544.683 365.508 544.528 366.236 544.881 366.78C545.234 367.325 545.962 367.48 546.506 367.126Z" fill="white"/>
<path d="M535.073 350.044C535.481 349.779 535.597 349.233 535.333 348.825C535.068 348.417 534.522 348.301 534.114 348.566C533.706 348.83 533.59 349.376 533.855 349.784C534.119 350.192 534.665 350.309 535.073 350.044Z" fill="white"/>
<path d="M534.651 423.829C535.059 423.564 535.175 423.018 534.91 422.61C534.646 422.202 534.1 422.086 533.692 422.35C533.284 422.615 533.168 423.161 533.432 423.569C533.697 423.977 534.243 424.093 534.651 423.829Z" fill="white"/>
<path d="M704.596 327.543C705.004 327.278 705.12 326.732 704.856 326.324C704.591 325.916 704.045 325.8 703.637 326.065C703.229 326.329 703.113 326.875 703.378 327.283C703.642 327.691 704.188 327.808 704.596 327.543Z" fill="white"/>
<path d="M486.987 273.65C487.395 273.385 487.511 272.839 487.246 272.431C486.981 272.023 486.435 271.907 486.027 272.172C485.619 272.436 485.503 272.982 485.768 273.39C486.033 273.798 486.578 273.914 486.987 273.65Z" fill="white"/>
<path d="M414.119 304.838C414.528 304.573 414.644 304.027 414.379 303.619C414.114 303.211 413.568 303.095 413.16 303.36C412.752 303.624 412.636 304.17 412.901 304.578C413.166 304.986 413.711 305.102 414.119 304.838Z" fill="white"/>
<path d="M392.956 290.568C393.364 290.303 393.48 289.757 393.215 289.349C392.95 288.941 392.405 288.825 391.996 289.089C391.588 289.354 391.472 289.9 391.737 290.308C392.002 290.716 392.547 290.832 392.956 290.568Z" fill="white"/>
<path d="M517.823 375.242C518.231 374.977 518.347 374.431 518.083 374.023C517.818 373.615 517.272 373.499 516.864 373.764C516.456 374.028 516.34 374.574 516.605 374.982C516.869 375.39 517.415 375.506 517.823 375.242Z" fill="white"/>
<path d="M563.307 214.323C563.715 214.058 563.831 213.512 563.566 213.104C563.301 212.696 562.756 212.58 562.347 212.845C561.939 213.11 561.823 213.655 562.088 214.063C562.353 214.471 562.898 214.588 563.307 214.323Z" fill="white"/>
<path d="M593.651 407.944C594.059 407.679 594.175 407.133 593.911 406.725C593.646 406.317 593.1 406.201 592.692 406.465C592.284 406.73 592.168 407.276 592.433 407.684C592.697 408.092 593.243 408.208 593.651 407.944Z" fill="white"/>
<path d="M702.456 289.725C702.864 289.46 702.98 288.914 702.715 288.506C702.45 288.098 701.905 287.982 701.496 288.247C701.088 288.512 700.972 289.057 701.237 289.465C701.502 289.873 702.047 289.99 702.456 289.725Z" fill="white"/>
<path d="M696.698 254.958C697.106 254.693 697.222 254.147 696.958 253.739C696.693 253.331 696.147 253.215 695.739 253.48C695.331 253.745 695.215 254.29 695.48 254.698C695.744 255.106 696.29 255.223 696.698 254.958Z" fill="white"/>
<path opacity="0.3" d="M576.029 324.16C576.574 323.807 576.728 323.079 576.375 322.535C576.022 321.991 575.294 321.836 574.75 322.189C574.206 322.542 574.051 323.27 574.404 323.814C574.757 324.359 575.485 324.513 576.029 324.16Z" fill="white"/>
<path d="M553.334 289.185C553.879 288.832 554.033 288.104 553.68 287.56C553.327 287.016 552.599 286.861 552.055 287.214C551.511 287.567 551.356 288.295 551.709 288.839C552.062 289.384 552.79 289.538 553.334 289.185Z" fill="white"/>
<path d="M608.44 318.535C608.848 318.27 608.964 317.724 608.7 317.316C608.435 316.908 607.889 316.792 607.481 317.057C607.073 317.321 606.957 317.867 607.222 318.275C607.486 318.683 608.032 318.799 608.44 318.535Z" fill="white"/>
<path opacity="0.3" d="M619.865 283.816C620.41 283.463 620.565 282.735 620.211 282.191C619.858 281.647 619.13 281.492 618.586 281.845C618.042 282.198 617.887 282.926 618.24 283.47C618.593 284.015 619.321 284.17 619.865 283.816Z" fill="white"/>
<path opacity="0.3" d="M691.335 287.143C691.879 286.79 692.034 286.062 691.681 285.518C691.327 284.974 690.6 284.819 690.055 285.172C689.511 285.525 689.356 286.253 689.709 286.797C690.063 287.342 690.79 287.496 691.335 287.143Z" fill="white"/>
<path opacity="0.3" d="M634.334 325.532C634.879 325.179 635.033 324.451 634.68 323.907C634.327 323.363 633.599 323.208 633.055 323.561C632.511 323.914 632.356 324.642 632.709 325.186C633.062 325.731 633.79 325.886 634.334 325.532Z" fill="white"/>
<path opacity="0.3" d="M464.545 264.411C465.089 264.058 465.244 263.33 464.891 262.786C464.537 262.242 463.81 262.087 463.265 262.44C462.721 262.793 462.566 263.521 462.919 264.065C463.273 264.61 464 264.764 464.545 264.411Z" fill="white"/>
<path opacity="0.3" d="M407.053 263.214C407.597 262.861 407.752 262.133 407.399 261.589C407.045 261.045 406.318 260.89 405.773 261.243C405.229 261.596 405.074 262.324 405.427 262.868C405.78 263.413 406.508 263.567 407.053 263.214Z" fill="white"/>
<path opacity="0.11" d="M661.545 285.472C662.09 285.119 662.244 284.391 661.891 283.847C661.538 283.303 660.81 283.148 660.266 283.501C659.722 283.854 659.567 284.582 659.92 285.126C660.273 285.671 661.001 285.826 661.545 285.472Z" fill="white"/>
<path opacity="0.3" d="M466.631 200.748C467.175 200.395 467.33 199.667 466.977 199.123C466.623 198.579 465.896 198.424 465.351 198.777C464.807 199.13 464.652 199.858 465.005 200.402C465.359 200.946 466.086 201.101 466.631 200.748Z" fill="white"/>
<path opacity="0.11" d="M446.936 199.527C447.48 199.174 447.635 198.446 447.282 197.902C446.928 197.358 446.201 197.203 445.656 197.556C445.112 197.909 444.957 198.637 445.31 199.181C445.664 199.726 446.391 199.88 446.936 199.527Z" fill="white"/>
<path opacity="0.3" d="M463.459 233.612C464.003 233.259 464.158 232.531 463.805 231.987C463.451 231.443 462.724 231.288 462.179 231.641C461.635 231.994 461.48 232.722 461.833 233.266C462.187 233.81 462.914 233.965 463.459 233.612Z" fill="white"/>
<path d="M493.924 213.14C494.332 212.875 494.448 212.329 494.183 211.921C493.918 211.513 493.373 211.397 492.964 211.661C492.556 211.926 492.44 212.472 492.705 212.88C492.97 213.288 493.515 213.404 493.924 213.14Z" fill="white"/>
</svg>
